<svg xmlns="http://www.w3.org/2000/svg" viewBox="0 0 24 24" fill="#ffffff" width="32" height="32">
  <!-- Amphora / vase -->
  <path d="M12 1.5 Q13.1 1.1 13.4 2.4 L13.7 3.9 Q14.4 4.4 14.4 5.4 Q14.4 6.9 13 7.4 L13 8 L11 8 L11 7.4 Q9.6 6.9 9.6 5.4 Q9.6 4.4 10.3 3.9 L10.6 2.4 Q10.9 1.1 12 1.5Z"/>
  <path d="M9.9 5 Q8.6 5 8.6 6 Q8.6 7 9.9 7" stroke="#ffffff" stroke-width="0.7" fill="none" stroke-linecap="round"/>
  <path d="M14.1 5 Q15.4 5 15.4 6 Q15.4 7 14.1 7" stroke="#ffffff" stroke-width="0.7" fill="none" stroke-linecap="round"/>
  <!-- Pediment triangle -->
  <polygon points="3.5,11.2 12,8 20.5,11.2"/>
  <!-- Cornice -->
  <rect x="3" y="11.2" width="18" height="1.2" rx="0.3"/>
  <!-- 3 Columns -->
  <rect x="4.5"  y="12.4" width="2.2" height="7.1" rx="0.4"/>
  <rect x="10.9" y="12.4" width="2.2" height="7.1" rx="0.4"/>
  <rect x="17.3" y="12.4" width="2.2" height="7.1" rx="0.4"/>
  <!-- Stylobate -->
  <rect x="4"  y="19.5" width="16"  height="0.9" rx="0.2"/>
  <!-- Steps (3) -->
  <rect x="3.5" y="20.4" width="17"  height="0.8" rx="0.2"/>
  <rect x="3"   y="21.2" width="18"  height="0.8" rx="0.2"/>
  <rect x="2.5" y="22"   width="19"  height="0.8" rx="0.2"/>
</svg>
