<svg xmlns="http://www.w3.org/2000/svg" viewBox="0 0 24 24" fill="#ffffff" width="32" height="32">
  <!-- Graduation cap -->
  <path d="M12 3L1 9l4 2.18V16c0 1.1 3.58 3 7 3s7-1.9 7-3v-4.82L23 9 12 3zm6 12.6c-.21.56-2.39 1.9-6 1.9s-5.79-1.34-6-1.9V12.4l6 3.28 6-3.28v3.2z"/>
  <!-- Building columns -->
  <rect x="5" y="19" width="2" height="2" rx="0.3"/>
  <rect x="11" y="19" width="2" height="2" rx="0.3"/>
  <rect x="17" y="19" width="2" height="2" rx="0.3"/>
  <rect x="4" y="21" width="16" height="1" rx="0.3"/>
</svg>
